<?xml version="1.0" encoding="UTF-8"?>
<svg version="1.1" xmlns="http://www.w3.org/2000/svg" width="123" height="76">
<path d="M0 0 C6.93 0 13.86 0 21 0 C21.77085938 2.32417969 22.54171875 4.64835938 23.3359375 7.04296875 C24.08687477 9.30358826 24.8383342 11.56403357 25.58984375 13.82446289 C26.11024661 15.3906878 26.63010985 16.95709212 27.14941406 18.52368164 C27.89765537 20.78058957 28.64786042 23.03683671 29.3984375 25.29296875 C29.6287265 25.98899704 29.8590155 26.68502533 30.09628296 27.40214539 C31.29010192 30.984012 32.55297059 34.51236382 34 38 C34.35827881 36.88439697 34.71655762 35.76879395 35.08569336 34.61938477 C36.41139191 30.49420382 37.74108961 26.37032134 39.07202148 22.24682617 C39.64831579 20.45941972 40.22351396 18.67165947 40.79760742 16.88354492 C41.62132834 14.31856754 42.4489382 11.75487388 43.27734375 9.19140625 C43.53466782 8.3872377 43.79199188 7.58306915 44.05711365 6.75453186 C45.88612829 1.11387171 45.88612829 1.11387171 47 0 C49.30053835 -0.09443335 51.60402173 -0.11742128 53.90649414 -0.11352539 C54.62840439 -0.11367142 55.35031464 -0.11381744 56.09410095 -0.1139679 C58.49114947 -0.11326869 60.88812123 -0.10547595 63.28515625 -0.09765625 C64.94282489 -0.0957921 66.60049407 -0.09436818 68.25816345 -0.09336853 C72.62954214 -0.08954312 77.00088781 -0.07971265 81.37225342 -0.06866455 C85.82954461 -0.05845092 90.28684111 -0.05387101 94.74414062 -0.04882812 C103.49610893 -0.0380904 112.24805036 -0.02101371 121 0 C121.02684679 2.64590014 121.04676357 5.29153096 121.0625 7.9375 C121.07087891 8.69224609 121.07925781 9.44699219 121.08789062 10.22460938 C121.09652441 12.14994313 121.05224333 14.07535581 121 16 C119.28205099 17.71794901 117.00061587 17.16922129 114.65405273 17.20532227 C112.94239174 17.2352401 112.94239174 17.2352401 111.19615173 17.26576233 C109.9545076 17.28247482 108.71286346 17.29918732 107.43359375 17.31640625 C106.16983414 17.33718735 104.90607452 17.35796844 103.60401917 17.37937927 C100.23881367 17.43383714 96.87359827 17.4840428 93.50830078 17.53222656 C90.07644099 17.58239759 86.64467169 17.63810655 83.21289062 17.69335938 C76.47533239 17.80070191 69.73770664 17.90244325 63 18 C62.77729431 18.64600662 62.55458862 19.29201324 62.32513428 19.95759583 C61.29674251 22.93722039 60.26557458 25.91587731 59.234375 28.89453125 C58.7091626 30.41826355 58.7091626 30.41826355 58.17333984 31.97277832 C55.99261836 38.26438643 53.70368255 44.49730283 51.25 50.6875 C48.86720325 56.70406378 46.67492266 62.73470166 44.7265625 68.91015625 C44 71 44 71 43 72 C41.58429877 72.08651611 40.164405 72.10704904 38.74609375 72.09765625 C37.89208984 72.09443359 37.03808594 72.09121094 36.15820312 72.08789062 C35.26037109 72.07951172 34.36253906 72.07113281 33.4375 72.0625 C32.53580078 72.05798828 31.63410156 72.05347656 30.70507812 72.04882812 C28.46998686 72.03700225 26.23502563 72.0205222 24 72 C23.56429688 70.8140625 23.12859375 69.628125 22.6796875 68.40625 C22.07823403 66.77079323 21.47666251 65.13537987 20.875 63.5 C20.55660156 62.63431396 20.23820312 61.76862793 19.91015625 60.87670898 C18.19829929 56.22920488 16.47165361 51.58806144 14.71704102 46.95654297 C11.87577342 39.45141733 9.17764115 31.90239453 6.55273438 24.31884766 C5.20921502 20.43849204 3.8517464 16.5678016 2.41015625 12.72265625 C2.17047119 12.0776416 1.93078613 11.43262695 1.68383789 10.76806641 C1.04588279 9.06032368 0.39830964 7.35618251 -0.25 5.65234375 C-1 3 -1 3 0 0 Z " fill="#E9E3E3" transform="translate(2,2)"/>
<path d="M0 0 C1.51289503 0.00031716 3.0258126 0.01164445 4.53857422 0.03173828 C5.33480194 0.03456818 6.13102966 0.03739807 6.9513855 0.04031372 C9.49882935 0.05152438 12.04592383 0.07663016 14.59326172 0.10205078 C16.31851706 0.11207945 18.04377791 0.1212055 19.76904297 0.12939453 C24.00225086 0.15146656 28.23519702 0.18600212 32.46826172 0.22705078 C34.06099316 3.41251367 33.56968005 6.85904426 33.53076172 10.35205078 C33.51013672 12.95080078 33.48951172 15.54955078 33.46826172 18.22705078 C26.86826172 18.22705078 20.26826172 18.22705078 13.46826172 18.22705078 C13.46826172 21.52705078 13.46826172 24.82705078 13.46826172 28.22705078 C14.91446899 28.21919556 14.91446899 28.21919556 16.38989258 28.21118164 C19.95498736 28.1931296 23.52007808 28.18161804 27.08520508 28.17211914 C28.63045938 28.16707938 30.17570888 28.16024759 31.72094727 28.15161133 C33.93751201 28.13953002 36.1540139 28.13381905 38.37060547 28.12939453 C39.06540512 28.12423325 39.76020477 28.11907196 40.47605896 28.11375427 C42.14055502 28.11355801 43.80491671 28.16515949 45.46826172 28.22705078 C47.28942174 30.04821081 46.60061252 32.53376842 46.60498047 34.95361328 C46.60111328 35.70384766 46.59724609 36.45408203 46.59326172 37.22705078 C46.5990625 38.35240234 46.5990625 38.35240234 46.60498047 39.50048828 C46.59487225 45.10044025 46.59487225 45.10044025 45.46826172 46.22705078 C43.94439941 46.33063857 42.41579186 46.36556216 40.88842773 46.37231445 C39.42669884 46.38188423 39.42669884 46.38188423 37.93544006 46.39164734 C36.34487038 46.39331657 36.34487038 46.39331657 34.72216797 46.39501953 C33.64072006 46.39834793 32.55927216 46.40167633 31.4450531 46.40510559 C29.15258206 46.41017956 26.8601036 46.41251377 24.56762695 46.41235352 C21.04935605 46.41453923 17.53139891 46.43268806 14.01318359 46.45166016 C11.79117946 46.45459406 9.56917384 46.45657887 7.34716797 46.45751953 C6.28881241 46.46470505 5.23045685 46.47189056 4.14002991 46.47929382 C2.67357277 46.47467888 2.67357277 46.47467888 1.17749023 46.4699707 C-0.11704323 46.47210823 -0.11704323 46.47210823 -1.43772888 46.47428894 C-3.53173828 46.22705078 -3.53173828 46.22705078 -5.53173828 44.22705078 C-5.78570557 42.40551758 -5.78570557 42.40551758 -5.79052734 40.17626953 C-5.79683167 39.34200439 -5.80313599 38.50773926 -5.80963135 37.64819336 C-5.80558289 36.74609131 -5.80153442 35.84398926 -5.79736328 34.91455078 C-5.79927673 33.98989014 -5.80119019 33.06522949 -5.80316162 32.11254883 C-5.80452394 30.15559619 -5.80082424 28.19863454 -5.79248047 26.24169922 C-5.78178163 23.23921488 -5.79237419 20.23732891 -5.80517578 17.23486328 C-5.80385419 15.33642446 -5.80129182 13.437986 -5.79736328 11.53955078 C-5.80141174 10.63744873 -5.80546021 9.73534668 -5.80963135 8.8059082 C-5.80332703 7.97164307 -5.79702271 7.13737793 -5.79052734 6.27783203 C-5.78893616 5.54218018 -5.78734497 4.80652832 -5.78570557 4.04858398 C-5.26231976 0.29469648 -3.49848019 0.22491266 0 0 Z " fill="#E9E4E4" transform="translate(76.53173828125,27.77294921875)"/>
</svg>
