<?xml version="1.0" encoding="UTF-8"?>
<svg version="1.1" xmlns="http://www.w3.org/2000/svg" width="727" height="433">
<path d="M0 0 C1.161259 -0.00073013 2.32251801 -0.00146027 3.51896667 -0.00221252 C7.36109973 0.00127363 11.20202377 0.04018671 15.04394531 0.0793457 C17.70625869 0.08867018 20.36850491 0.09603388 23.03082275 0.1007843 C29.32431559 0.11632042 35.61737378 0.15734507 41.91067529 0.20753175 C49.07622922 0.26343298 56.24180399 0.29091356 63.40752172 0.31600893 C78.14592681 0.36826157 92.88399099 0.45619895 107.62207031 0.56762695 C107.62207031 1.22762695 107.62207031 1.88762695 107.62207031 2.56762695 C108.28207031 2.56762695 108.94207031 2.56762695 109.62207031 2.56762695 C109.62207031 4.21762695 109.62207031 5.86762695 109.62207031 7.56762695 C110.28207031 7.56762695 110.94207031 7.56762695 111.62207031 7.56762695 C111.95207031 10.86762695 112.28207031 14.16762695 112.62207031 17.56762695 C113.28207031 17.56762695 113.94207031 17.56762695 114.62207031 17.56762695 C114.62207031 19.21762695 114.62207031 20.86762695 114.62207031 22.56762695 C115.28207031 22.56762695 115.94207031 22.56762695 116.62207031 22.56762695 C116.75484375 23.27790039 116.88761719 23.98817383 117.02441406 24.7199707 C117.28931641 26.09862305 117.28931641 26.09862305 117.55957031 27.50512695 C117.73359375 28.42165039 117.90761719 29.33817383 118.08691406 30.2824707 C118.3992202 32.5205254 118.3992202 32.5205254 119.62207031 33.56762695 C119.66270863 35.2337981 119.66479131 36.9015079 119.62207031 38.56762695 C120.28207031 38.56762695 120.94207031 38.56762695 121.62207031 38.56762695 C121.95207031 41.86762695 122.28207031 45.16762695 122.62207031 48.56762695 C123.28207031 48.56762695 123.94207031 48.56762695 124.62207031 48.56762695 C125.13085331 50.12728913 125.628705 51.69051936 126.12207031 53.25512695 C126.53972656 54.56030273 126.53972656 54.56030273 126.96582031 55.8918457 C127.62057837 58.56154372 127.74038526 60.83159379 127.62207031 63.56762695 C128.28207031 63.56762695 128.94207031 63.56762695 129.62207031 63.56762695 C129.95207031 66.86762695 130.28207031 70.16762695 130.62207031 73.56762695 C131.28207031 73.56762695 131.94207031 73.56762695 132.62207031 73.56762695 C132.62207031 75.21762695 132.62207031 76.86762695 132.62207031 78.56762695 C133.28207031 78.56762695 133.94207031 78.56762695 134.62207031 78.56762695 C134.95207031 81.53762695 135.28207031 84.50762695 135.62207031 87.56762695 C136.28207031 87.56762695 136.94207031 87.56762695 137.62207031 87.56762695 C138.13085331 89.12728913 138.628705 90.69051936 139.12207031 92.25512695 C139.53972656 93.56030273 139.53972656 93.56030273 139.96582031 94.8918457 C140.62057837 97.56154372 140.74038526 99.83159379 140.62207031 102.56762695 C141.28207031 102.56762695 141.94207031 102.56762695 142.62207031 102.56762695 C142.75484375 103.27790039 142.88761719 103.98817383 143.02441406 104.7199707 C143.28931641 106.09862305 143.28931641 106.09862305 143.55957031 107.50512695 C143.73359375 108.42165039 143.90761719 109.33817383 144.08691406 110.2824707 C144.3992202 112.5205254 144.3992202 112.5205254 145.62207031 113.56762695 C145.66270863 115.2337981 145.66479131 116.9015079 145.62207031 118.56762695 C146.28207031 118.56762695 146.94207031 118.56762695 147.62207031 118.56762695 C147.75484375 119.20571289 147.88761719 119.84379883 148.02441406 120.5012207 C148.28931641 121.7406543 148.28931641 121.7406543 148.55957031 123.00512695 C148.73359375 123.82883789 148.90761719 124.65254883 149.08691406 125.5012207 C149.42960025 127.54423899 149.42960025 127.54423899 150.62207031 128.56762695 C150.66270863 130.2337981 150.66479131 131.9015079 150.62207031 133.56762695 C151.28207031 133.56762695 151.94207031 133.56762695 152.62207031 133.56762695 C152.95207031 136.86762695 153.28207031 140.16762695 153.62207031 143.56762695 C154.28207031 143.56762695 154.94207031 143.56762695 155.62207031 143.56762695 C155.62207031 145.21762695 155.62207031 146.86762695 155.62207031 148.56762695 C156.28207031 148.56762695 156.94207031 148.56762695 157.62207031 148.56762695 C157.95207031 151.86762695 158.28207031 155.16762695 158.62207031 158.56762695 C159.28207031 158.56762695 159.94207031 158.56762695 160.62207031 158.56762695 C160.86957031 159.84637695 161.11707031 161.12512695 161.37207031 162.44262695 C162.54119661 167.74544981 164.54091793 172.5694495 166.62207031 177.56762695 C168.08659187 181.44860908 168.8663316 184.41518514 168.62207031 188.56762695 C169.28207031 188.56762695 169.94207031 188.56762695 170.62207031 188.56762695 C170.95207031 191.86762695 171.28207031 195.16762695 171.62207031 198.56762695 C172.28207031 198.56762695 172.94207031 198.56762695 173.62207031 198.56762695 C173.75484375 199.20571289 173.88761719 199.84379883 174.02441406 200.5012207 C174.28931641 201.7406543 174.28931641 201.7406543 174.55957031 203.00512695 C174.73359375 203.82883789 174.90761719 204.65254883 175.08691406 205.5012207 C175.42960025 207.54423899 175.42960025 207.54423899 176.62207031 208.56762695 C176.66270863 210.2337981 176.66479131 211.9015079 176.62207031 213.56762695 C177.28207031 213.56762695 177.94207031 213.56762695 178.62207031 213.56762695 C178.95207031 216.86762695 179.28207031 220.16762695 179.62207031 223.56762695 C180.28207031 223.56762695 180.94207031 223.56762695 181.62207031 223.56762695 C181.62207031 225.21762695 181.62207031 226.86762695 181.62207031 228.56762695 C182.28207031 228.56762695 182.94207031 228.56762695 183.62207031 228.56762695 C183.95207031 231.86762695 184.28207031 235.16762695 184.62207031 238.56762695 C185.28207031 238.56762695 185.94207031 238.56762695 186.62207031 238.56762695 C186.62207031 240.21762695 186.62207031 241.86762695 186.62207031 243.56762695 C187.28207031 243.56762695 187.94207031 243.56762695 188.62207031 243.56762695 C188.95207031 244.22762695 189.28207031 244.88762695 189.62207031 245.56762695 C190.70979876 242.50667106 191.79137345 239.44357175 192.87207031 236.38012695 C193.17242187 235.53514648 193.47277344 234.69016602 193.78222656 233.81958008 C195.8599789 227.91787928 197.73889963 221.97431262 199.55957031 215.98876953 C201.4322493 209.95893253 203.47716751 203.98689325 205.49707031 198.00512695 C208.74898758 188.3396186 211.90590694 178.65860791 214.73291016 168.85839844 C215.95363193 164.65155288 217.33944856 160.56865964 218.90991211 156.47973633 C220.00925804 153.52804715 220.90079169 150.52017229 221.80957031 147.50512695 C223.93137257 140.56875636 226.27968614 133.72300457 228.68457031 126.88012695 C231.51347546 118.82187469 234.21949143 110.76466078 236.62207031 102.56762695 C237.14124998 100.79630809 237.66200508 99.02544998 238.18457031 97.25512695 C238.39210937 96.53711914 238.59964844 95.81911133 238.81347656 95.0793457 C239.49548862 92.96082515 240.23959726 90.89759281 241.02832031 88.81762695 C242.64938473 84.54019228 244.12111156 80.22191425 245.55957031 75.88012695 C245.82334473 75.08687012 246.08711914 74.29361328 246.35888672 73.47631836 C247.79154674 69.14679349 249.178509 64.80852996 250.49707031 60.44262695 C252.67631139 53.25384413 255.08611137 46.14457728 257.4777832 39.02441406 C260.17388405 30.97495844 262.76660637 22.89635439 265.27563477 14.78662109 C265.67335083 13.51612915 265.67335083 13.51612915 266.07910156 12.2199707 C266.41905151 11.1215686 266.41905151 11.1215686 266.76586914 10.00097656 C267.89644187 6.78785468 269.27145277 3.69365039 270.62207031 0.56762695 C326.13184894 0.5447607 381.64162709 0.52712879 437.1514095 0.51656162 C443.69810764 0.51531085 450.24480578 0.51401653 456.79150391 0.51269531 C458.09488733 0.512433 459.39827075 0.51217069 460.74115063 0.51190043 C481.8724094 0.50754375 503.00366545 0.49965621 524.13492261 0.49047416 C545.80178986 0.48113757 567.46865569 0.47557133 589.13552487 0.47353846 C602.51563645 0.47216324 615.89574037 0.46781271 629.2758496 0.45971049 C638.43893277 0.45444297 647.60201195 0.45282267 656.76509653 0.45412558 C662.05939619 0.45476895 667.35368243 0.45375154 672.64797974 0.44842148 C677.48756424 0.44358451 682.3271262 0.44329029 687.1667117 0.44672806 C688.92447501 0.44715346 690.68223968 0.44586023 692.44000028 0.44274377 C694.81562874 0.43877423 697.19117409 0.4408671 699.56680107 0.44457912 C700.26104166 0.44195211 700.95528224 0.4393251 701.67056042 0.43661848 C706.39377872 0.45348115 706.39377872 0.45348115 708.62207031 1.56762695 C708.69151097 12.72878218 708.74485138 23.8898862 708.77750683 35.05121326 C708.79317801 40.23360118 708.81444279 45.41584154 708.84838867 50.59814453 C708.88093031 55.59722536 708.89891238 60.59616408 708.90670204 65.59534264 C708.9122549 67.50478033 708.92309799 69.41421005 708.93926048 71.32358742 C708.96096577 73.99340387 708.96404015 76.66262937 708.96264648 79.33251953 C708.97882523 80.52258606 708.97882523 80.52258606 708.99533081 81.73669434 C708.96509263 87.07268175 708.96509263 87.07268175 707.2257843 89.58232117 C705.62207031 90.56762695 705.62207031 90.56762695 703.62207031 90.56762695 C703.62207031 91.22762695 703.62207031 91.88762695 703.62207031 92.56762695 C700.98661764 93.88535329 699.03459234 93.69176442 696.08168602 93.69067478 C694.89683282 93.69266583 693.71197963 93.69465688 692.49122179 93.69670826 C691.178016 93.69379542 689.86481021 93.69088258 688.5118103 93.68788147 C687.11177667 93.68831718 685.71174312 93.68919209 684.31171 93.69047064 C680.45108483 93.6927156 676.59048721 93.68869428 672.72986555 93.68369257 C668.57171597 93.67938829 664.41356805 93.68083448 660.25541687 93.68159485 C653.0466716 93.6821201 645.83793535 93.6789732 638.62919235 93.67335701 C628.20646236 93.66524214 617.78373676 93.6626268 607.36100395 93.66136902 C590.45225537 93.65917848 573.54351159 93.65251834 556.63476562 93.64306641 C540.20605493 93.63389234 523.77734555 93.62681148 507.34863281 93.62255859 C506.33656676 93.62229587 505.3245007 93.62203315 504.28176598 93.62176246 C499.2047071 93.62045746 494.12764822 93.61919374 489.05058932 93.61795056 C446.9077463 93.60757789 404.76490858 93.58995951 362.62207031 93.56762695 C360.98596423 99.26665464 360.98596423 99.26665464 359.49707031 105.00512695 C359.20832031 106.18075195 358.91957031 107.35637695 358.62207031 108.56762695 C357.96207031 108.56762695 357.30207031 108.56762695 356.62207031 108.56762695 C356.62207031 110.21762695 356.62207031 111.86762695 356.62207031 113.56762695 C355.96207031 113.56762695 355.30207031 113.56762695 354.62207031 113.56762695 C354.29207031 116.53762695 353.96207031 119.50762695 353.62207031 122.56762695 C352.96207031 122.56762695 352.30207031 122.56762695 351.62207031 122.56762695 C351.53957031 123.49575195 351.45707031 124.42387695 351.37207031 125.38012695 C350.75500751 129.82660892 349.16491683 133.84412517 347.55957031 138.0168457 C346.75916064 140.19462701 346.1302695 142.3071993 345.62207031 144.56762695 C344.96207031 144.56762695 344.30207031 144.56762695 343.62207031 144.56762695 C343.62207031 146.21762695 343.62207031 147.86762695 343.62207031 149.56762695 C342.96207031 149.56762695 342.30207031 149.56762695 341.62207031 149.56762695 C341.53957031 150.68137695 341.45707031 151.79512695 341.37207031 152.94262695 C340.83730152 157.15484692 339.51390646 160.64210701 337.86035156 164.5324707 C336.30990655 168.33277283 334.96726436 172.19084952 333.62207031 176.06762695 C332.01086833 180.69638078 330.37652969 185.28916576 328.49707031 189.81762695 C326.51123535 194.64155104 325.02582792 199.586284 323.55175781 204.5871582 C322.70063112 207.31577025 321.72327131 209.93156616 320.62207031 212.56762695 C319.96207031 212.56762695 319.30207031 212.56762695 318.62207031 212.56762695 C318.53957031 213.68137695 318.45707031 214.79512695 318.37207031 215.94262695 C317.83355591 220.39329013 316.33305406 224.17609094 314.55957031 228.27075195 C313.70536871 230.36354589 313.10724313 232.36413373 312.62207031 234.56762695 C311.96207031 234.56762695 311.30207031 234.56762695 310.62207031 234.56762695 C310.5846875 235.15930664 310.54730469 235.75098633 310.50878906 236.3605957 C310.41017578 237.54588867 310.41017578 237.54588867 310.30957031 238.75512695 C310.2515625 239.53243164 310.19355469 240.30973633 310.13378906 241.1105957 C309.5176805 244.06885742 308.19313554 245.99573498 306.62207031 248.56762695 C305.89517773 250.63071914 305.23103405 252.71670206 304.62207031 254.81762695 C303.05709255 260.10845563 301.39328988 265.34252923 299.62207031 270.56762695 C298.96207031 270.56762695 298.30207031 270.56762695 297.62207031 270.56762695 C297.53957031 271.49575195 297.45707031 272.42387695 297.37207031 273.38012695 C296.43428445 279.87950398 293.661973 285.91178218 291.28222656 291.98950195 C290.8375 293.1290332 290.39277344 294.26856445 289.93457031 295.44262695 C289.31001953 297.01657227 289.31001953 297.01657227 288.67285156 298.62231445 C287.72510226 301.2788311 287.08818828 303.79140783 286.62207031 306.56762695 C285.96207031 306.56762695 285.30207031 306.56762695 284.62207031 306.56762695 C284.50347656 307.23922852 284.38488281 307.91083008 284.26269531 308.6027832 C283.49885281 312.13788355 282.46087506 315.56009045 281.37207031 319.00512695 C281.04154663 320.05531006 281.04154663 320.05531006 280.7043457 321.12670898 C277.71623604 330.52700284 274.38351775 339.78235609 270.66503906 348.91918945 C266.61178891 359.07528175 266.61178891 359.07528175 263.62207031 369.56762695 C262.96207031 369.56762695 262.30207031 369.56762695 261.62207031 369.56762695 C261.53957031 370.68137695 261.45707031 371.79512695 261.37207031 372.94262695 C260.83268764 377.3116266 259.389884 380.99193416 257.67675781 385.0246582 C256.11013913 388.80194993 254.86362606 392.67365665 253.62207031 396.56762695 C252.96207031 396.56762695 252.30207031 396.56762695 251.62207031 396.56762695 C251.29207031 399.53762695 250.96207031 402.50762695 250.62207031 405.56762695 C249.96207031 405.56762695 249.30207031 405.56762695 248.62207031 405.56762695 C248.29207031 407.21762695 247.96207031 408.86762695 247.62207031 410.56762695 C245.97207031 415.84762695 244.32207031 421.12762695 242.62207031 426.56762695 C207.31207031 426.56762695 172.00207031 426.56762695 135.62207031 426.56762695 C127.84429253 404.34540473 127.84429253 404.34540473 125.64160156 397.46606445 C124.42457485 394.00616477 123.05751842 390.61860543 121.68579102 387.2175293 C120.01657235 383.05923245 118.40997421 378.87779723 116.80957031 374.69262695 C116.50470703 373.9037207 116.19984375 373.11481445 115.88574219 372.30200195 C113.59712892 366.31568959 111.4664052 360.28130551 109.36425781 354.2277832 C105.59366707 343.38302422 101.59157213 332.62989765 97.55957031 321.88012695 C93.23869828 310.35269775 88.96542245 298.81668732 84.89770508 287.19726562 C83.35316639 282.80249881 81.75029867 278.43190364 80.12207031 274.06762695 C77.89491651 268.06675321 75.72698253 262.04989492 73.62207031 256.00512695 C71.62012395 250.26532726 69.48324419 244.59503848 67.24707031 238.94262695 C64.6208024 232.28811477 62.1963956 225.58329338 59.87207031 218.81762695 C56.78665454 209.84166538 53.58727632 200.91263503 50.30957031 192.00512695 C50.07840515 191.37671906 49.84723999 190.74831116 49.60906982 190.1008606 C48.42537295 186.88423949 47.24021457 183.66815948 46.05419922 180.45239258 C43.69531202 174.05569635 41.34548704 167.6556733 38.99707031 161.25512695 C38.76724457 160.62895477 38.53741882 160.00278259 38.30062866 159.3576355 C35.2112761 150.93822187 32.15148095 142.50878055 29.12207031 134.06762695 C20.28968486 109.46270358 11.19286565 84.95267445 2.14958191 60.4246521 C0.7051986 56.50692719 -0.73839907 52.58891545 -2.18066406 48.67041016 C-2.78287148 47.03458433 -3.38508498 45.39876075 -3.98730469 43.76293945 C-4.28002258 42.96752747 -4.57274048 42.17211548 -4.87432861 41.3526001 C-6.59108349 36.69121188 -8.32317092 32.03594409 -10.06542969 27.3840332 C-10.83669806 25.2995587 -11.60754587 23.21492853 -12.37792969 21.13012695 C-12.98701172 19.52041016 -12.98701172 19.52041016 -13.60839844 17.87817383 C-13.98609375 16.84885742 -14.36378906 15.81954102 -14.75292969 14.7590332 C-15.25953125 13.40080444 -15.25953125 13.40080444 -15.77636719 12.01513672 C-16.72298791 8.16372732 -15.82946463 6.43859101 -14.03582764 2.97885132 C-9.8227064 -0.84325953 -5.49456807 -0.08992746 0 0 Z " fill="#000000" transform="translate(16.3779296875,4.432373046875)"/>
<path d="M0 0 C0.86438139 -0.0068354 1.72876279 -0.0136708 2.61933756 -0.02071333 C5.49796795 -0.03382713 8.37281584 0.00998849 11.25109863 0.05383301 C13.32121696 0.05609101 15.39134169 0.05482017 17.4614563 0.05029297 C23.06880582 0.04800079 28.67478191 0.09498163 34.28181267 0.15088463 C40.14605592 0.20094894 46.01033187 0.20559872 51.87475586 0.21508789 C62.97415675 0.23993708 74.07292607 0.30556527 85.17204905 0.38588381 C97.81035697 0.47535223 110.44869532 0.51930143 123.08724117 0.55944729 C149.08036129 0.64303224 175.07292111 0.78371544 201.06555176 0.96203613 C201.06555176 1.62203613 201.06555176 2.28203613 201.06555176 2.96203613 C201.72555176 2.96203613 202.38555176 2.96203613 203.06555176 2.96203613 C204.69055176 4.33703613 204.69055176 4.33703613 206.06555176 5.96203613 C206.06555176 6.62203613 206.06555176 7.28203613 206.06555176 7.96203613 C206.72555176 7.96203613 207.38555176 7.96203613 208.06555176 7.96203613 C208.25110805 19.18424692 208.39315774 30.40609142 208.48004913 41.62952518 C208.52175858 46.84141883 208.5783083 52.05226121 208.66906738 57.2635498 C208.75614637 62.29515814 208.80385782 67.32575702 208.8245697 72.35806084 C208.83932449 74.27549569 208.86813911 76.19287672 208.91139221 78.10988045 C208.9696935 80.80146678 208.97745666 83.48891169 208.97375488 86.18103027 C209.00251709 86.96937759 209.0312793 87.75772491 209.06091309 88.56996155 C208.99280079 93.16342455 207.98280468 95.65913681 204.7310791 98.96118164 C199.58018741 102.92572019 194.81384478 102.90698596 188.50891113 102.75671387 C186.81003754 102.75824715 186.81003754 102.75824715 185.07684326 102.7598114 C181.35335649 102.75495547 177.63235727 102.70060169 173.90930176 102.64562988 C171.3200006 102.63256677 168.73068209 102.62260597 166.14135742 102.61561584 C160.0354441 102.59166924 153.93054912 102.53656965 147.82501841 102.46616942 C140.18661655 102.38002022 132.54806871 102.34188387 124.90930176 102.30383301 C111.29403025 102.23580085 97.680688 102.09555942 84.06555176 101.96203613 C84.06555176 123.08203613 84.06555176 144.20203613 84.06555176 165.96203613 C92.84152954 165.92276001 92.84152954 165.92276001 101.7947998 165.88269043 C121.09310999 165.79996073 140.39142701 165.74440552 159.68986797 165.70297527 C171.39420794 165.67718095 183.09838006 165.64200677 194.8026123 165.58483887 C205.00264799 165.53504173 215.20256212 165.50275406 225.40271598 165.49159366 C230.80492783 165.48506869 236.20679192 165.46970738 241.60889244 165.43338585 C246.69210246 165.39948484 251.77482099 165.38897132 256.85813332 165.39649773 C258.72501419 165.39512055 260.59191124 165.38515302 262.45869446 165.36600876 C265.00616522 165.34116221 267.55177594 165.34709933 270.09928894 165.36076355 C271.20970858 165.33891724 271.20970858 165.33891724 272.34256095 165.31662959 C276.30011783 165.37408399 277.93700087 165.85858367 281.06344318 168.37461567 C283.06555176 170.96203613 283.06555176 170.96203613 283.06555176 172.96203613 C283.72555176 172.96203613 284.38555176 172.96203613 285.06555176 172.96203613 C285.13499241 184.12319136 285.18833283 195.28429538 285.22098827 206.44562244 C285.23665945 211.62801036 285.25792423 216.81025072 285.29187012 221.99255371 C285.32441175 226.99163454 285.34239383 231.99057326 285.35018349 236.98975182 C285.35573635 238.89918951 285.36657943 240.80861923 285.38274193 242.7179966 C285.40444722 245.38781305 285.40752159 248.05703855 285.40612793 250.72692871 C285.42230667 251.91699524 285.42230667 251.91699524 285.43881226 253.13110352 C285.40857407 258.46709093 285.40857407 258.46709093 283.66926575 260.97673035 C282.06555176 261.96203613 282.06555176 261.96203613 280.06555176 261.96203613 C280.06555176 262.62203613 280.06555176 263.28203613 280.06555176 263.96203613 C279.40555176 263.96203613 278.74555176 263.96203613 278.06555176 263.96203613 C277.73555176 264.95203613 277.40555176 265.94203613 277.06555176 266.96203613 C240.79228112 266.98490494 204.51901174 267.0025356 168.24573538 267.01310146 C163.96724968 267.01435223 159.688764 267.01564655 155.41027832 267.01696777 C154.55847773 267.01723008 153.70667714 267.01749239 152.82906441 267.01776265 C139.0211461 267.02211873 125.21323192 267.03000594 111.40531607 267.03918893 C97.2462513 267.0485272 83.0871887 267.05409211 68.92812097 267.05612463 C60.18513689 267.05749949 51.44216452 267.06184813 42.69918405 267.0699526 C36.71084272 267.07522219 30.72250749 267.07683994 24.73416401 267.07553751 C21.274753 267.07489447 17.81536252 267.07590788 14.35595512 267.08124161 C10.61254102 267.08617721 6.86917809 267.08503489 3.12576294 267.08229065 C2.02266836 267.08520349 0.91957378 267.08811633 -0.21694791 267.09111744 C-1.21369775 267.08912639 -2.21044759 267.08713534 -3.23740196 267.08508396 C-4.53490633 267.08565354 -4.53490633 267.08565354 -5.85862291 267.08623463 C-7.93444824 266.96203613 -7.93444824 266.96203613 -9.93444824 265.96203613 C-9.93444824 265.30203613 -9.93444824 264.64203613 -9.93444824 263.96203613 C-10.59444824 263.96203613 -11.25444824 263.96203613 -11.93444824 263.96203613 C-15.58684565 260.61578819 -17.22423065 258.34105786 -17.57203388 253.35737038 C-17.60333833 251.51895052 -17.6072559 249.67994026 -17.58955383 247.84133911 C-17.59947048 246.82505255 -17.60938713 245.80876599 -17.61960429 244.76168287 C-17.64656394 241.35760571 -17.63779793 237.95457385 -17.62902832 234.55041504 C-17.64071522 232.10932883 -17.65448435 229.66825183 -17.67018127 227.22718811 C-17.70211622 221.28559393 -17.71031888 215.34425622 -17.70619313 209.40260364 C-17.7031003 204.57202326 -17.70866326 199.74152784 -17.72034264 194.91096115 C-17.72364657 193.5185281 -17.72695016 192.12609506 -17.7302534 190.73366201 C-17.73272357 189.6940194 -17.73272357 189.6940194 -17.73524364 188.6333739 C-17.76501128 175.53042275 -17.76181256 162.42762934 -17.74888947 149.3246613 C-17.73814612 137.34451314 -17.77022243 125.36492397 -17.82234816 113.38489886 C-17.8754877 101.07652521 -17.89888462 88.76841797 -17.89050788 76.45992792 C-17.88635372 69.55250942 -17.8940468 62.64559173 -17.93311501 55.73826981 C-17.96952326 49.24226741 -17.96416996 42.74712212 -17.9307766 36.25109673 C-17.92499442 33.86786005 -17.93285056 31.48454517 -17.9553833 29.101408 C-17.98401036 25.84516894 -17.96323146 22.59281373 -17.93013 19.33670044 C-17.95002214 18.39524976 -17.96991427 17.45379909 -17.9904092 16.4838196 C-17.87789826 11.27844823 -16.94170028 8.30056773 -13.43062115 4.37374687 C-9.05060381 0.53009043 -5.69967184 -0.16731988 0 0 Z " fill="#000000" transform="translate(439.9344482421875,163.0379638671875)"/>
</svg>
